# xmcd
#
# Track frame offsets:
# 150
# 15374
# 34804
# 48301
# 62768
# 77986
# 97281
# 113483
# 135751
# 144760
# 163840
# 177866
#
# Disc length: 2603 seconds
#
#
# Revision: 0
# Processed by: cddbd v1.5.1PL0 Copyright (c) Steve Scherf et al.
# Submitted via: FreeRIP 2.70 
#
DISCID=920a290c
DTITLE=The Jefferson Street Bluesmen - Blues In The Street
DYEAR=2003
DGENRE=blues
TTITLE0=Another Man's Woman
TTITLE1=Blues In The Street
TTITLE2=BYOB
TTITLE3=I Don't Love Me Either
TTITLE4=Sweet Homeland Of The Blues
TTITLE5=Slowed Down Nasty
TTITLE6=One Night Out
TTITLE7=Sweet Young Thang
TTITLE8=Front Porch With A Light
TTITLE9=Rainy Night In Georgia
TTITLE10=All Night Romance
TTITLE11=Ill Wind
EXTD=Bluesfestradio.com
EXTT0=
EXTT1=
EXTT2=
EXTT3=
EXTT4=
EXTT5=
EXTT6=
EXTT7=
EXTT8=
EXTT9=
EXTT10=
EXTT11=
PLAYORDER=
